<svg xmlns="http://www.w3.org/2000/svg" xmlns:xlink="http://www.w3.org/1999/xlink" width="2000" zoomAndPan="magnify" viewBox="0 0 1500 1499.999933" height="2000" preserveAspectRatio="xMidYMid meet" version="1.0"><defs><filter x="0%" y="0%" width="100%" height="100%" id="dc2243b13a"><feColorMatrix values="0 0 0 0 1 0 0 0 0 1 0 0 0 0 1 0 0 0 1 0" color-interpolation-filters="sRGB"/></filter><mask id="04af047b0d"><g filter="url(#dc2243b13a)"><rect x="-150" width="1800" fill="#000000" y="-149.999993" height="1799.99992" fill-opacity="0.95"/></g></mask><clipPath id="663403e962"><path d="M 283 0.519531 L 1174 0.519531 L 1174 295 L 283 295 Z M 283 0.519531 " clip-rule="nonzero"/></clipPath><clipPath id="6414c284f4"><path d="M 0.199219 179 L 1174 179 L 1174 519.519531 L 0.199219 519.519531 Z M 0.199219 179 " clip-rule="nonzero"/></clipPath><clipPath id="61ce629242"><rect x="0" width="1175" y="0" height="523"/></clipPath><clipPath id="e7b95556e2"><path d="M 833.242188 1350 L 1420.492188 1350 L 1420.492188 1500 L 833.242188 1500 Z M 833.242188 1350 " clip-rule="nonzero"/></clipPath></defs><rect x="-150" width="1800" fill="#ffffff" y="-149.999993" height="1799.99992" fill-opacity="1"/><rect x="-150" width="1800" fill="#ffffff" y="-149.999993" height="1799.99992" fill-opacity="1"/><g mask="url(#04af047b0d)"><g transform="matrix(1, 0, 0, 1, 151, 490)"><g clip-path="url(#61ce629242)"><g clip-path="url(#663403e962)"><path fill="#1e365f" d="M 665.960938 8.996094 L 665.960938 117.210938 L 404.300781 117.210938 L 404.300781 175.347656 L 402.535156 175.03125 L 392.792969 173.292969 C 391.160156 173.03125 389.53125 172.6875 387.898438 172.449219 L 383 171.738281 L 363.382812 169 C 360.121094 168.5 356.828125 168.238281 353.535156 167.871094 L 343.691406 166.894531 L 333.867188 165.921875 C 330.605469 165.632812 327.285156 165.472656 323.996094 165.238281 C 317.414062 164.839844 310.832031 164.394531 304.273438 164.078125 C 297.296875 163.816406 290.347656 163.628906 283.367188 163.550781 L 283.367188 8.996094 Z M 514.121094 204.175781 L 517.621094 205.441406 L 536.316406 212.183594 C 542.53125 214.5 548.613281 217.132812 554.746094 219.605469 L 563.933594 223.371094 C 566.988281 224.609375 570.097656 225.847656 573.070312 227.269531 L 591.109375 235.589844 L 600.113281 239.773438 C 603.085938 241.222656 606.011719 242.777344 608.984375 244.25 L 641.921875 261.339844 L 641.921875 204.175781 Z M 980.625 0.519531 C 839.183594 0.519531 719.675781 115.078125 719.675781 251.570312 C 719.675781 263.972656 720.648438 276.214844 722.570312 288.195312 L 723.019531 288.273438 C 728.679688 289.222656 734.339844 290.300781 740.105469 291.011719 L 744.398438 291.617188 C 745.84375 291.800781 747.292969 291.933594 748.714844 292.089844 C 751.613281 292.355469 754.480469 292.777344 757.402344 292.988281 L 766.121094 293.722656 L 774.886719 294.222656 C 786.601562 294.726562 798.425781 294.855469 810.300781 294.515625 C 823.253906 294.066406 836.261719 293.171875 849.292969 291.828125 C 845.476562 279.007812 843.421875 265.5 843.421875 251.570312 C 843.421875 175.1875 906.375 110.128906 980.625 110.128906 C 1021.644531 110.128906 1059.824219 130.640625 1085.285156 162.472656 L 1173.671875 83.984375 C 1125.59375 33.035156 1056.296875 0.519531 980.625 0.519531 Z M 980.625 0.519531 " fill-opacity="1" fill-rule="nonzero"/></g><g clip-path="url(#6414c284f4)"><path fill="#b22234" d="M 1173.671875 435.296875 C 1125.59375 486.929688 1056.296875 519.445312 980.625 519.445312 C 878.730469 519.445312 788.210938 459.597656 745.582031 375.132812 C 741.265625 374.898438 736.972656 374.582031 732.65625 374.1875 C 705.0625 371.84375 677.414062 366.183594 650.613281 357.335938 C 637.261719 352.808594 624.125 347.488281 611.328125 341.433594 L 586.132812 328.53125 L 404.273438 328.53125 L 404.273438 510.996094 L 283.34375 510.996094 L 283.34375 233.535156 C 264.203125 231.085938 244.953125 229.21875 225.601562 227.796875 C 219.414062 227.425781 213.226562 226.980469 207.066406 226.6875 C 200.878906 226.480469 194.664062 226.292969 188.453125 225.953125 C 182.265625 225.769531 176.050781 225.714844 169.808594 225.582031 C 163.570312 225.453125 157.355469 225.6875 151.117188 225.609375 C 144.875 225.558594 138.636719 225.820312 132.371094 225.925781 C 126.101562 226.03125 119.863281 226.480469 113.597656 226.636719 C 107.332031 226.898438 101.0625 227.320312 94.796875 227.664062 C 88.558594 228.214844 82.210938 228.507812 75.972656 229.113281 L 66.546875 229.953125 L 57.121094 230.929688 C 53.960938 231.21875 50.828125 231.585938 47.667969 231.980469 C 44.535156 232.375 41.375 232.71875 38.214844 233.140625 C 25.628906 234.746094 13.042969 236.667969 0.433594 239.0625 C 11.703125 232.824219 23.550781 227.691406 35.53125 222.820312 C 47.535156 218.078125 59.726562 213.628906 72.101562 209.785156 C 96.796875 201.859375 122.128906 195.832031 147.746094 191.039062 C 150.933594 190.433594 154.144531 189.878906 157.355469 189.355469 C 160.59375 188.828125 163.808594 188.195312 167.019531 187.800781 C 173.46875 186.878906 179.921875 185.90625 186.425781 185.0625 C 192.902344 184.273438 199.40625 183.589844 205.933594 182.902344 C 212.4375 182.324219 218.96875 181.851562 225.496094 181.351562 C 244.71875 180.007812 264.015625 179.480469 283.367188 179.71875 C 290.347656 179.796875 297.296875 179.980469 304.273438 180.246094 C 310.855469 180.535156 317.414062 180.980469 323.996094 181.402344 C 327.261719 181.640625 330.578125 181.796875 333.867188 182.085938 L 343.691406 183.0625 L 353.535156 184.035156 C 356.828125 184.378906 360.121094 184.667969 363.382812 185.167969 L 383 187.90625 L 387.898438 188.617188 C 389.53125 188.855469 391.160156 189.171875 392.792969 189.460938 L 402.535156 191.199219 L 404.300781 191.511719 L 412.304688 192.960938 L 417.175781 193.855469 L 422.019531 194.910156 L 441.398438 199.203125 L 446.242188 200.308594 C 447.847656 200.675781 449.429688 201.125 451.035156 201.542969 L 470.253906 206.652344 C 473.441406 207.496094 476.652344 208.3125 479.8125 209.339844 L 498.769531 215.234375 C 501.929688 216.238281 505.117188 217.183594 508.25 218.238281 L 514.121094 220.34375 L 517.621094 221.609375 L 536.316406 228.347656 C 542.53125 230.664062 548.613281 233.296875 554.746094 235.773438 L 563.933594 239.539062 C 566.988281 240.777344 570.097656 242.011719 573.070312 243.433594 L 591.109375 251.753906 L 600.113281 255.941406 C 603.085938 257.390625 606.011719 258.941406 608.984375 260.417969 L 641.921875 277.503906 L 642.449219 277.769531 C 652.535156 282.746094 662.933594 287.140625 673.570312 291.011719 C 684.183594 294.960938 695.136719 298.042969 706.21875 300.78125 C 709.011719 301.414062 711.773438 302.148438 714.59375 302.730469 L 722.597656 304.335938 L 723.042969 304.414062 C 728.707031 305.363281 734.367188 306.441406 740.132812 307.152344 L 744.421875 307.757812 C 745.871094 307.941406 747.320312 308.074219 748.742188 308.230469 C 751.636719 308.496094 754.507812 308.917969 757.429688 309.125 L 766.144531 309.863281 L 774.914062 310.363281 C 786.628906 310.863281 798.453125 310.996094 810.328125 310.652344 C 823.28125 310.207031 836.285156 309.3125 849.320312 307.96875 C 860.21875 306.863281 871.121094 305.414062 882.046875 303.648438 C 906.058594 299.886719 930.046875 294.644531 953.980469 288.5625 C 965.960938 285.535156 977.859375 282.113281 989.789062 278.558594 C 1001.742188 275.03125 1013.589844 271.1875 1025.4375 267.15625 C 1072.882812 251.125 1119.777344 232.140625 1166.328125 210.496094 C 1156.953125 219.34375 1146.949219 227.453125 1136.835938 235.457031 C 1126.675781 243.355469 1116.273438 251.019531 1105.636719 258.335938 C 1095.027344 265.761719 1084.125 272.714844 1073.148438 279.558594 C 1062.113281 286.378906 1050.84375 292.800781 1039.472656 299.09375 C 1028.070312 305.308594 1016.433594 311.207031 1004.691406 316.894531 C 992.921875 322.582031 980.914062 327.769531 968.804688 332.796875 C 944.554688 342.828125 919.515625 351.410156 893.816406 358.285156 C 888.945312 359.601562 884.023438 360.863281 879.097656 362.050781 C 904.453125 391.195312 940.945312 409.8125 980.675781 409.8125 C 1022.410156 409.8125 1059.875 389.300781 1086.046875 357.46875 Z M 1173.671875 435.296875 " fill-opacity="1" fill-rule="nonzero"/></g></g></g></g><g clip-path="url(#e7b95556e2)"><path fill="#ffffff" d="M 964.035156 1589.078125 C 988.878906 1522.992188 1052.21875 1475.628906 1126.863281 1475.628906 C 1201.511719 1475.628906 1264.851562 1522.992188 1289.695312 1589.078125 L 1420.515625 1589.078125 C 1392.257812 1452.84375 1271.355469 1350.109375 1126.863281 1350.109375 C 982.375 1350.109375 861.480469 1452.84375 833.214844 1589.078125 Z M 964.035156 1589.078125 " fill-opacity="1" fill-rule="nonzero"/></g></svg>