<svg xmlns="http://www.w3.org/2000/svg" xmlns:xlink="http://www.w3.org/1999/xlink" width="800" zoomAndPan="magnify" viewBox="0 0 600 599.999999" height="800" preserveAspectRatio="xMidYMid meet" version="1.0"><defs><g/><clipPath id="fb8110bd2a"><path d="M 59 194 L 174 194 L 174 349 L 59 349 Z M 59 194 " clip-rule="nonzero"/></clipPath><clipPath id="edb18b7c48"><path d="M 59.082031 210.714844 L 116.480469 194.652344 L 173.878906 210.714844 L 173.878906 279.566406 C 173.878906 313.992188 116.480469 348.417969 116.480469 348.417969 C 116.480469 348.417969 59.082031 313.992188 59.082031 279.566406 Z M 59.082031 210.714844 " clip-rule="nonzero"/></clipPath><linearGradient x1="0.0000000444651" gradientTransform="matrix(114.798317, 0, 0, 153.764984, 59.080906, 194.65145)" y1="0.0000000444651" x2="1" gradientUnits="userSpaceOnUse" y2="1" id="8e7d2b18a4"><stop stop-opacity="1" stop-color="rgb(10.198975%, 26.669312%, 50.19989%)" offset="0"/><stop stop-opacity="1" stop-color="rgb(10.26001%, 26.78833%, 50.346375%)" offset="0.015625"/><stop stop-opacity="1" stop-color="rgb(10.38208%, 27.027893%, 50.639343%)" offset="0.03125"/><stop stop-opacity="1" stop-color="rgb(10.505676%, 27.26593%, 50.933838%)" offset="0.046875"/><stop stop-opacity="1" stop-color="rgb(10.627747%, 27.505493%, 51.228333%)" offset="0.0625"/><stop stop-opacity="1" stop-color="rgb(10.749817%, 27.74353%, 51.521301%)" offset="0.078125"/><stop stop-opacity="1" stop-color="rgb(10.873413%, 27.983093%, 51.815796%)" offset="0.09375"/><stop stop-opacity="1" stop-color="rgb(10.995483%, 28.22113%, 52.110291%)" offset="0.109375"/><stop stop-opacity="1" stop-color="rgb(11.117554%, 28.460693%, 52.404785%)" offset="0.125"/><stop stop-opacity="1" stop-color="rgb(11.239624%, 28.700256%, 52.697754%)" offset="0.140625"/><stop stop-opacity="1" stop-color="rgb(11.36322%, 28.938293%, 52.992249%)" offset="0.15625"/><stop stop-opacity="1" stop-color="rgb(11.485291%, 29.177856%, 53.286743%)" offset="0.171875"/><stop stop-opacity="1" stop-color="rgb(11.607361%, 29.415894%, 53.579712%)" offset="0.1875"/><stop stop-opacity="1" stop-color="rgb(11.730957%, 29.655457%, 53.874207%)" offset="0.203125"/><stop stop-opacity="1" stop-color="rgb(11.853027%, 29.893494%, 54.168701%)" offset="0.21875"/><stop stop-opacity="1" stop-color="rgb(11.975098%, 30.133057%, 54.463196%)" offset="0.234375"/><stop stop-opacity="1" stop-color="rgb(12.097168%, 30.371094%, 54.756165%)" offset="0.25"/><stop stop-opacity="1" stop-color="rgb(12.220764%, 30.610657%, 55.050659%)" offset="0.265625"/><stop stop-opacity="1" stop-color="rgb(12.342834%, 30.85022%, 55.345154%)" offset="0.28125"/><stop stop-opacity="1" stop-color="rgb(12.464905%, 31.088257%, 55.638123%)" offset="0.296875"/><stop stop-opacity="1" stop-color="rgb(12.588501%, 31.32782%, 55.932617%)" offset="0.3125"/><stop stop-opacity="1" stop-color="rgb(12.710571%, 31.565857%, 56.227112%)" offset="0.328125"/><stop stop-opacity="1" stop-color="rgb(12.832642%, 31.80542%, 56.521606%)" offset="0.34375"/><stop stop-opacity="1" stop-color="rgb(12.954712%, 32.043457%, 56.814575%)" offset="0.359375"/><stop stop-opacity="1" stop-color="rgb(13.078308%, 32.28302%, 57.10907%)" offset="0.375"/><stop stop-opacity="1" stop-color="rgb(13.200378%, 32.522583%, 57.403564%)" offset="0.390625"/><stop stop-opacity="1" stop-color="rgb(13.322449%, 32.76062%, 57.696533%)" offset="0.40625"/><stop stop-opacity="1" stop-color="rgb(13.444519%, 33.000183%, 57.991028%)" offset="0.421875"/><stop stop-opacity="1" stop-color="rgb(13.568115%, 33.23822%, 58.285522%)" offset="0.4375"/><stop stop-opacity="1" stop-color="rgb(13.690186%, 33.477783%, 58.580017%)" offset="0.453125"/><stop stop-opacity="1" stop-color="rgb(13.812256%, 33.71582%, 58.872986%)" offset="0.46875"/><stop stop-opacity="1" stop-color="rgb(13.935852%, 33.955383%, 59.16748%)" offset="0.484375"/><stop stop-opacity="1" stop-color="rgb(14.057922%, 34.194946%, 59.461975%)" offset="0.5"/><stop stop-opacity="1" stop-color="rgb(14.118958%, 34.313965%, 59.609985%)" offset="0.5"/><stop stop-opacity="1" stop-color="rgb(14.179993%, 34.432983%, 59.75647%)" offset="0.5"/><stop stop-opacity="1" stop-color="rgb(14.241028%, 34.553528%, 59.902954%)" offset="0.515625"/><stop stop-opacity="1" stop-color="rgb(14.302063%, 34.672546%, 60.049438%)" offset="0.53125"/><stop stop-opacity="1" stop-color="rgb(14.425659%, 34.910583%, 60.343933%)" offset="0.546875"/><stop stop-opacity="1" stop-color="rgb(14.547729%, 35.150146%, 60.638428%)" offset="0.5625"/><stop stop-opacity="1" stop-color="rgb(14.6698%, 35.388184%, 60.931396%)" offset="0.578125"/><stop stop-opacity="1" stop-color="rgb(14.793396%, 35.627747%, 61.225891%)" offset="0.59375"/><stop stop-opacity="1" stop-color="rgb(14.915466%, 35.86731%, 61.520386%)" offset="0.609375"/><stop stop-opacity="1" stop-color="rgb(15.037537%, 36.105347%, 61.81488%)" offset="0.625"/><stop stop-opacity="1" stop-color="rgb(15.159607%, 36.34491%, 62.107849%)" offset="0.640625"/><stop stop-opacity="1" stop-color="rgb(15.283203%, 36.582947%, 62.402344%)" offset="0.65625"/><stop stop-opacity="1" stop-color="rgb(15.405273%, 36.82251%, 62.696838%)" offset="0.671875"/><stop stop-opacity="1" stop-color="rgb(15.527344%, 37.060547%, 62.989807%)" offset="0.6875"/><stop stop-opacity="1" stop-color="rgb(15.65094%, 37.30011%, 63.284302%)" offset="0.703125"/><stop stop-opacity="1" stop-color="rgb(15.77301%, 37.539673%, 63.578796%)" offset="0.71875"/><stop stop-opacity="1" stop-color="rgb(15.895081%, 37.77771%, 63.873291%)" offset="0.734375"/><stop stop-opacity="1" stop-color="rgb(16.017151%, 38.017273%, 64.16626%)" offset="0.75"/><stop stop-opacity="1" stop-color="rgb(16.140747%, 38.25531%, 64.460754%)" offset="0.765625"/><stop stop-opacity="1" stop-color="rgb(16.262817%, 38.494873%, 64.755249%)" offset="0.78125"/><stop stop-opacity="1" stop-color="rgb(16.384888%, 38.73291%, 65.048218%)" offset="0.796875"/><stop stop-opacity="1" stop-color="rgb(16.508484%, 38.972473%, 65.342712%)" offset="0.8125"/><stop stop-opacity="1" stop-color="rgb(16.630554%, 39.212036%, 65.637207%)" offset="0.828125"/><stop stop-opacity="1" stop-color="rgb(16.752625%, 39.450073%, 65.931702%)" offset="0.84375"/><stop stop-opacity="1" stop-color="rgb(16.874695%, 39.689636%, 66.22467%)" offset="0.859375"/><stop stop-opacity="1" stop-color="rgb(16.998291%, 39.927673%, 66.519165%)" offset="0.875"/><stop stop-opacity="1" stop-color="rgb(17.120361%, 40.167236%, 66.81366%)" offset="0.890625"/><stop stop-opacity="1" stop-color="rgb(17.242432%, 40.405273%, 67.106628%)" offset="0.90625"/><stop stop-opacity="1" stop-color="rgb(17.366028%, 40.644836%, 67.401123%)" offset="0.921875"/><stop stop-opacity="1" stop-color="rgb(17.488098%, 40.884399%, 67.695618%)" offset="0.9375"/><stop stop-opacity="1" stop-color="rgb(17.610168%, 41.122437%, 67.990112%)" offset="0.953125"/><stop stop-opacity="1" stop-color="rgb(17.732239%, 41.362%, 68.283081%)" offset="0.96875"/><stop stop-opacity="1" stop-color="rgb(17.855835%, 41.600037%, 68.577576%)" offset="0.984375"/><stop stop-opacity="1" stop-color="rgb(17.977905%, 41.8396%, 68.87207%)" offset="1"/></linearGradient><clipPath id="6f9b1a6eae"><path d="M 33 176.292969 L 200 176.292969 L 200 375 L 33 375 Z M 33 176.292969 " clip-rule="nonzero"/></clipPath></defs><rect x="-60" width="720" fill="#ffffff" y="-60" height="719.999999" fill-opacity="1"/><rect x="-60" width="720" fill="#ffffff" y="-60" height="719.999999" fill-opacity="1"/><g clip-path="url(#fb8110bd2a)"><g clip-path="url(#edb18b7c48)"><path fill="url(#8e7d2b18a4)" d="M 59.082031 194.652344 L 59.082031 348.417969 L 173.878906 348.417969 L 173.878906 194.652344 Z M 59.082031 194.652344 " fill-rule="nonzero"/></g></g><g clip-path="url(#6f9b1a6eae)"><path stroke-linecap="butt" transform="matrix(2.295966, 0, 0, 2.295, 1.681748, 176.291468)" fill="none" stroke-linejoin="miter" d="M 25.000491 14.999293 L 50.000178 8.000382 L 74.999865 14.999293 L 74.999865 44.999975 C 74.999865 60.000316 50.000178 75.000657 50.000178 75.000657 C 50.000178 75.000657 25.000491 60.000316 25.000491 44.999975 Z M 25.000491 14.999293 " stroke="#0d2a4d" stroke-width="2" stroke-opacity="1" stroke-miterlimit="4"/></g><path stroke-linecap="round" transform="matrix(2.295966, 0, 0, 2.295, 1.681748, 176.291468)" fill="none" stroke-linejoin="round" d="M 38.000533 41.999226 L 46.000296 52.000588 L 61.999824 31.999566 " stroke="#ffffff" stroke-width="5" stroke-opacity="1" stroke-miterlimit="4"/><g fill="#1a4480" fill-opacity="1"><g transform="translate(208.308155, 279.555327)"><g><path d="M 28.90625 -7.5625 C 31.664062 -7.5625 34.332031 -7.960938 36.90625 -8.765625 C 39.488281 -9.566406 41.488281 -10.585938 42.90625 -11.828125 L 42.90625 -18.828125 L 30.5625 -18.828125 L 30.5625 -26.640625 L 52.59375 -26.640625 L 52.59375 -8.0625 C 49.914062 -5.3125 46.425781 -3.160156 42.125 -1.609375 C 37.832031 -0.0546875 33.332031 0.71875 28.625 0.71875 C 20.394531 0.71875 14.066406 -1.554688 9.640625 -6.109375 C 5.222656 -10.660156 3.015625 -17.125 3.015625 -25.5 C 3.015625 -33.8125 5.238281 -40.1875 9.6875 -44.625 C 14.132812 -49.0625 20.53125 -51.28125 28.875 -51.28125 C 40.738281 -51.28125 48.285156 -46.894531 51.515625 -38.125 L 41.75 -35.171875 C 40.695312 -37.734375 39.046875 -39.671875 36.796875 -40.984375 C 34.554688 -42.296875 31.914062 -42.953125 28.875 -42.953125 C 23.90625 -42.953125 20.128906 -41.445312 17.546875 -38.4375 C 14.960938 -35.425781 13.671875 -31.113281 13.671875 -25.5 C 13.671875 -19.78125 15.003906 -15.359375 17.671875 -12.234375 C 20.335938 -9.117188 24.082031 -7.5625 28.90625 -7.5625 Z M 28.90625 -7.5625 "/></g></g></g><g fill="#1a4480" fill-opacity="1"><g transform="translate(265.445977, 279.555327)"><g><path d="M 46.140625 -14.5625 C 46.140625 -9.613281 44.300781 -5.828125 40.625 -3.203125 C 36.957031 -0.585938 31.570312 0.71875 24.46875 0.71875 C 17.988281 0.71875 12.90625 -0.425781 9.21875 -2.71875 C 5.53125 -5.019531 3.160156 -8.5 2.109375 -13.15625 L 12.34375 -14.84375 C 13.03125 -12.164062 14.378906 -10.222656 16.390625 -9.015625 C 18.398438 -7.804688 21.1875 -7.203125 24.75 -7.203125 C 32.144531 -7.203125 35.84375 -9.453125 35.84375 -13.953125 C 35.84375 -15.378906 35.414062 -16.554688 34.5625 -17.484375 C 33.71875 -18.421875 32.519531 -19.203125 30.96875 -19.828125 C 29.425781 -20.453125 26.46875 -21.207031 22.09375 -22.09375 C 18.320312 -22.976562 15.691406 -23.6875 14.203125 -24.21875 C 12.722656 -24.757812 11.382812 -25.394531 10.1875 -26.125 C 8.988281 -26.851562 7.972656 -27.726562 7.140625 -28.75 C 6.304688 -29.78125 5.65625 -30.988281 5.1875 -32.375 C 4.71875 -33.757812 4.484375 -35.351562 4.484375 -37.15625 C 4.484375 -41.71875 6.195312 -45.210938 9.625 -47.640625 C 13.0625 -50.066406 18.054688 -51.28125 24.609375 -51.28125 C 30.878906 -51.28125 35.582031 -50.296875 38.71875 -48.328125 C 41.863281 -46.367188 43.894531 -43.132812 44.8125 -38.625 L 34.546875 -37.21875 C 34.015625 -39.394531 32.941406 -41.03125 31.328125 -42.125 C 29.710938 -43.226562 27.398438 -43.78125 24.390625 -43.78125 C 17.984375 -43.78125 14.78125 -41.773438 14.78125 -37.765625 C 14.78125 -36.441406 15.117188 -35.363281 15.796875 -34.53125 C 16.484375 -33.695312 17.492188 -32.984375 18.828125 -32.390625 C 20.171875 -31.804688 22.890625 -31.070312 26.984375 -30.1875 C 31.835938 -29.164062 35.304688 -28.21875 37.390625 -27.34375 C 39.484375 -26.46875 41.140625 -25.453125 42.359375 -24.296875 C 43.585938 -23.140625 44.523438 -21.753906 45.171875 -20.140625 C 45.816406 -18.523438 46.140625 -16.664062 46.140625 -14.5625 Z M 46.140625 -14.5625 "/></g></g></g><g fill="#1a4480" fill-opacity="1"><g transform="translate(314.441749, 279.555327)"><g><path d="M 40.640625 0 L 36.15625 -12.90625 L 16.890625 -12.90625 L 12.40625 0 L 1.828125 0 L 20.265625 -50.53125 L 32.75 -50.53125 L 51.125 0 Z M 26.515625 -42.75 L 26.296875 -41.953125 C 26.054688 -41.085938 25.769531 -40.101562 25.4375 -39 C 25.101562 -37.90625 23.046875 -31.863281 19.265625 -20.875 L 33.796875 -20.875 L 28.8125 -35.390625 L 27.265625 -40.265625 Z M 26.515625 -42.75 "/></g></g></g><g fill="#555555" fill-opacity="1"><g transform="translate(208.308155, 341.525361)"><g><path d="M 31.375 -9.59375 C 31.375 -6.382812 30.117188 -3.898438 27.609375 -2.140625 C 25.109375 -0.378906 21.578125 0.5 17.015625 0.5 C 8.546875 0.5 3.640625 -2.441406 2.296875 -8.328125 L 6.859375 -9.25 C 7.378906 -7.15625 8.492188 -5.617188 10.203125 -4.640625 C 11.921875 -3.671875 14.25 -3.1875 17.1875 -3.1875 C 20.226562 -3.1875 22.578125 -3.707031 24.234375 -4.75 C 25.890625 -5.789062 26.71875 -7.320312 26.71875 -9.34375 C 26.71875 -10.476562 26.457031 -11.394531 25.9375 -12.09375 C 25.414062 -12.800781 24.6875 -13.382812 23.75 -13.84375 C 22.8125 -14.3125 21.691406 -14.703125 20.390625 -15.015625 C 19.097656 -15.328125 17.660156 -15.660156 16.078125 -16.015625 C 13.335938 -16.628906 11.253906 -17.238281 9.828125 -17.84375 C 8.410156 -18.457031 7.289062 -19.132812 6.46875 -19.875 C 5.644531 -20.625 5.015625 -21.5 4.578125 -22.5 C 4.140625 -23.507812 3.921875 -24.660156 3.921875 -25.953125 C 3.921875 -28.929688 5.054688 -31.222656 7.328125 -32.828125 C 9.609375 -34.441406 12.875 -35.25 17.125 -35.25 C 21.0625 -35.25 24.070312 -34.644531 26.15625 -33.4375 C 28.25 -32.226562 29.71875 -30.171875 30.5625 -27.265625 L 25.921875 -26.453125 C 25.410156 -28.285156 24.441406 -29.617188 23.015625 -30.453125 C 21.585938 -31.285156 19.601562 -31.703125 17.0625 -31.703125 C 14.289062 -31.703125 12.171875 -31.238281 10.703125 -30.3125 C 9.242188 -29.394531 8.515625 -28.023438 8.515625 -26.203125 C 8.515625 -25.128906 8.796875 -24.242188 9.359375 -23.546875 C 9.929688 -22.847656 10.75 -22.253906 11.8125 -21.765625 C 12.882812 -21.285156 15.015625 -20.691406 18.203125 -19.984375 C 19.273438 -19.742188 20.335938 -19.492188 21.390625 -19.234375 C 22.453125 -18.984375 23.46875 -18.679688 24.4375 -18.328125 C 25.414062 -17.972656 26.328125 -17.554688 27.171875 -17.078125 C 28.015625 -16.609375 28.75 -16.023438 29.375 -15.328125 C 30 -14.640625 30.488281 -13.828125 30.84375 -12.890625 C 31.195312 -11.953125 31.375 -10.851562 31.375 -9.59375 Z M 31.375 -9.59375 "/></g></g></g><g fill="#555555" fill-opacity="1"><g transform="translate(241.990793, 341.525361)"><g><path d="M 7.75 -26.671875 L 7.75 -9.765625 C 7.75 -8.003906 7.921875 -6.640625 8.265625 -5.671875 C 8.609375 -4.703125 9.15625 -4.003906 9.90625 -3.578125 C 10.664062 -3.148438 11.78125 -2.9375 13.25 -2.9375 C 15.382812 -2.9375 17.066406 -3.664062 18.296875 -5.125 C 19.535156 -6.59375 20.15625 -8.625 20.15625 -11.21875 L 20.15625 -26.671875 L 24.59375 -26.671875 L 24.59375 -5.6875 C 24.59375 -2.582031 24.640625 -0.6875 24.734375 0 L 20.546875 0 C 20.523438 -0.0820312 20.503906 -0.300781 20.484375 -0.65625 C 20.472656 -1.019531 20.457031 -1.4375 20.4375 -1.90625 C 20.414062 -2.375 20.382812 -3.257812 20.34375 -4.5625 L 20.28125 -4.5625 C 19.257812 -2.71875 18.078125 -1.410156 16.734375 -0.640625 C 15.390625 0.117188 13.722656 0.5 11.734375 0.5 C 8.804688 0.5 6.664062 -0.226562 5.3125 -1.6875 C 3.957031 -3.144531 3.28125 -5.550781 3.28125 -8.90625 L 3.28125 -26.671875 Z M 7.75 -26.671875 "/></g></g></g><g fill="#555555" fill-opacity="1"><g transform="translate(270.076103, 341.525361)"><g><path d="M 25.96875 -13.453125 C 25.96875 -4.148438 22.695312 0.5 16.15625 0.5 C 12.039062 0.5 9.28125 -1.046875 7.875 -4.140625 L 7.75 -4.140625 C 7.8125 -4.003906 7.84375 -2.609375 7.84375 0.046875 L 7.84375 10.46875 L 3.40625 10.46875 L 3.40625 -21.21875 C 3.40625 -23.96875 3.351562 -25.785156 3.25 -26.671875 L 7.546875 -26.671875 C 7.566406 -26.609375 7.59375 -26.375 7.625 -25.96875 C 7.65625 -25.5625 7.691406 -24.9375 7.734375 -24.09375 C 7.773438 -23.257812 7.796875 -22.6875 7.796875 -22.375 L 7.890625 -22.375 C 8.679688 -24.019531 9.722656 -25.222656 11.015625 -25.984375 C 12.316406 -26.753906 14.03125 -27.140625 16.15625 -27.140625 C 19.445312 -27.140625 21.90625 -26.035156 23.53125 -23.828125 C 25.15625 -21.628906 25.96875 -18.171875 25.96875 -13.453125 Z M 21.3125 -13.359375 C 21.3125 -17.078125 20.804688 -19.734375 19.796875 -21.328125 C 18.796875 -22.921875 17.203125 -23.71875 15.015625 -23.71875 C 13.253906 -23.71875 11.875 -23.347656 10.875 -22.609375 C 9.882812 -21.867188 9.128906 -20.710938 8.609375 -19.140625 C 8.097656 -17.566406 7.84375 -15.523438 7.84375 -13.015625 C 7.84375 -9.515625 8.398438 -6.929688 9.515625 -5.265625 C 10.640625 -3.609375 12.457031 -2.78125 14.96875 -2.78125 C 17.175781 -2.78125 18.785156 -3.585938 19.796875 -5.203125 C 20.804688 -6.828125 21.3125 -9.546875 21.3125 -13.359375 Z M 21.3125 -13.359375 "/></g></g></g><g fill="#555555" fill-opacity="1"><g transform="translate(298.161414, 341.525361)"><g><path d="M 25.96875 -13.453125 C 25.96875 -4.148438 22.695312 0.5 16.15625 0.5 C 12.039062 0.5 9.28125 -1.046875 7.875 -4.140625 L 7.75 -4.140625 C 7.8125 -4.003906 7.84375 -2.609375 7.84375 0.046875 L 7.84375 10.46875 L 3.40625 10.46875 L 3.40625 -21.21875 C 3.40625 -23.96875 3.351562 -25.785156 3.25 -26.671875 L 7.546875 -26.671875 C 7.566406 -26.609375 7.59375 -26.375 7.625 -25.96875 C 7.65625 -25.5625 7.691406 -24.9375 7.734375 -24.09375 C 7.773438 -23.257812 7.796875 -22.6875 7.796875 -22.375 L 7.890625 -22.375 C 8.679688 -24.019531 9.722656 -25.222656 11.015625 -25.984375 C 12.316406 -26.753906 14.03125 -27.140625 16.15625 -27.140625 C 19.445312 -27.140625 21.90625 -26.035156 23.53125 -23.828125 C 25.15625 -21.628906 25.96875 -18.171875 25.96875 -13.453125 Z M 21.3125 -13.359375 C 21.3125 -17.078125 20.804688 -19.734375 19.796875 -21.328125 C 18.796875 -22.921875 17.203125 -23.71875 15.015625 -23.71875 C 13.253906 -23.71875 11.875 -23.347656 10.875 -22.609375 C 9.882812 -21.867188 9.128906 -20.710938 8.609375 -19.140625 C 8.097656 -17.566406 7.84375 -15.523438 7.84375 -13.015625 C 7.84375 -9.515625 8.398438 -6.929688 9.515625 -5.265625 C 10.640625 -3.609375 12.457031 -2.78125 14.96875 -2.78125 C 17.175781 -2.78125 18.785156 -3.585938 19.796875 -5.203125 C 20.804688 -6.828125 21.3125 -9.546875 21.3125 -13.359375 Z M 21.3125 -13.359375 "/></g></g></g><g fill="#555555" fill-opacity="1"><g transform="translate(326.246724, 341.525361)"><g><path d="M 25.96875 -13.359375 C 25.96875 -8.691406 24.941406 -5.210938 22.890625 -2.921875 C 20.835938 -0.640625 17.851562 0.5 13.9375 0.5 C 10.039062 0.5 7.097656 -0.6875 5.109375 -3.0625 C 3.117188 -5.4375 2.125 -8.867188 2.125 -13.359375 C 2.125 -22.566406 6.109375 -27.171875 14.078125 -27.171875 C 18.160156 -27.171875 21.160156 -26.046875 23.078125 -23.796875 C 25.003906 -21.554688 25.96875 -18.078125 25.96875 -13.359375 Z M 21.3125 -13.359375 C 21.3125 -17.035156 20.765625 -19.707031 19.671875 -21.375 C 18.578125 -23.050781 16.738281 -23.890625 14.15625 -23.890625 C 11.5625 -23.890625 9.679688 -23.035156 8.515625 -21.328125 C 7.359375 -19.628906 6.78125 -16.972656 6.78125 -13.359375 C 6.78125 -9.835938 7.351562 -7.191406 8.5 -5.421875 C 9.644531 -3.660156 11.441406 -2.78125 13.890625 -2.78125 C 16.546875 -2.78125 18.445312 -3.632812 19.59375 -5.34375 C 20.738281 -7.050781 21.3125 -9.722656 21.3125 -13.359375 Z M 21.3125 -13.359375 "/></g></g></g><g fill="#555555" fill-opacity="1"><g transform="translate(354.332034, 341.525361)"><g><path d="M 3.5 0 L 3.5 -20.453125 C 3.5 -22.328125 3.453125 -24.398438 3.359375 -26.671875 L 7.546875 -26.671875 C 7.679688 -23.648438 7.75 -21.832031 7.75 -21.21875 L 7.84375 -21.21875 C 8.550781 -23.507812 9.363281 -25.070312 10.28125 -25.90625 C 11.207031 -26.75 12.507812 -27.171875 14.1875 -27.171875 C 14.78125 -27.171875 15.378906 -27.085938 15.984375 -26.921875 L 15.984375 -22.84375 C 15.390625 -23.007812 14.597656 -23.09375 13.609375 -23.09375 C 11.773438 -23.09375 10.367188 -22.300781 9.390625 -20.71875 C 8.421875 -19.132812 7.9375 -16.863281 7.9375 -13.90625 L 7.9375 0 Z M 3.5 0 "/></g></g></g><g fill="#555555" fill-opacity="1"><g transform="translate(371.148696, 341.525361)"><g><path d="M 13.671875 -0.203125 C 12.203125 0.191406 10.703125 0.390625 9.171875 0.390625 C 5.617188 0.390625 3.84375 -1.617188 3.84375 -5.640625 L 3.84375 -23.4375 L 0.765625 -23.4375 L 0.765625 -26.671875 L 4.015625 -26.671875 L 5.328125 -32.640625 L 8.28125 -32.640625 L 8.28125 -26.671875 L 13.21875 -26.671875 L 13.21875 -23.4375 L 8.28125 -23.4375 L 8.28125 -6.609375 C 8.28125 -5.328125 8.488281 -4.425781 8.90625 -3.90625 C 9.332031 -3.382812 10.0625 -3.125 11.09375 -3.125 C 11.6875 -3.125 12.546875 -3.238281 13.671875 -3.46875 Z M 13.671875 -0.203125 "/></g></g></g><g fill="#555555" fill-opacity="1"><g transform="translate(385.179024, 341.525361)"><g/></g></g><g fill="#555555" fill-opacity="1"><g transform="translate(399.209353, 341.525361)"><g><path d="M 19.53125 -31.40625 C 15.6875 -31.40625 12.691406 -30.164062 10.546875 -27.6875 C 8.410156 -25.21875 7.34375 -21.832031 7.34375 -17.53125 C 7.34375 -13.269531 8.457031 -9.84375 10.6875 -7.25 C 12.914062 -4.664062 15.929688 -3.375 19.734375 -3.375 C 24.597656 -3.375 28.253906 -5.78125 30.703125 -10.59375 L 34.5625 -8.671875 C 33.125 -5.679688 31.109375 -3.40625 28.515625 -1.84375 C 25.929688 -0.28125 22.929688 0.5 19.515625 0.5 C 16.003906 0.5 12.96875 -0.226562 10.40625 -1.6875 C 7.851562 -3.144531 5.90625 -5.222656 4.5625 -7.921875 C 3.226562 -10.628906 2.5625 -13.832031 2.5625 -17.53125 C 2.5625 -23.0625 4.054688 -27.394531 7.046875 -30.53125 C 10.046875 -33.675781 14.191406 -35.25 19.484375 -35.25 C 23.179688 -35.25 26.269531 -34.523438 28.75 -33.078125 C 31.238281 -31.628906 33.066406 -29.484375 34.234375 -26.640625 L 29.765625 -25.171875 C 28.960938 -27.191406 27.664062 -28.734375 25.875 -29.796875 C 24.09375 -30.867188 21.976562 -31.40625 19.53125 -31.40625 Z M 19.53125 -31.40625 "/></g></g></g><g fill="#555555" fill-opacity="1"><g transform="translate(435.678336, 341.525361)"><g><path d="M 6.8125 -12.40625 C 6.8125 -9.34375 7.441406 -6.976562 8.703125 -5.3125 C 9.972656 -3.65625 11.820312 -2.828125 14.25 -2.828125 C 16.175781 -2.828125 17.71875 -3.210938 18.875 -3.984375 C 20.039062 -4.765625 20.828125 -5.742188 21.234375 -6.921875 L 25.140625 -5.8125 C 23.535156 -1.601562 19.90625 0.5 14.25 0.5 C 10.3125 0.5 7.304688 -0.675781 5.234375 -3.03125 C 3.171875 -5.382812 2.140625 -8.878906 2.140625 -13.515625 C 2.140625 -17.910156 3.171875 -21.285156 5.234375 -23.640625 C 7.304688 -25.992188 10.253906 -27.171875 14.078125 -27.171875 C 21.921875 -27.171875 25.84375 -22.441406 25.84375 -12.984375 L 25.84375 -12.40625 Z M 21.265625 -15.796875 C 21.015625 -18.609375 20.296875 -20.660156 19.109375 -21.953125 C 17.929688 -23.242188 16.234375 -23.890625 14.015625 -23.890625 C 11.859375 -23.890625 10.148438 -23.171875 8.890625 -21.734375 C 7.628906 -20.296875 6.953125 -18.316406 6.859375 -15.796875 Z M 21.265625 -15.796875 "/></g></g></g><g fill="#555555" fill-opacity="1"><g transform="translate(463.763646, 341.525361)"><g><path d="M 20.34375 0 L 20.34375 -16.90625 C 20.34375 -18.664062 20.171875 -20.03125 19.828125 -21 C 19.484375 -21.96875 18.929688 -22.664062 18.171875 -23.09375 C 17.421875 -23.519531 16.3125 -23.734375 14.84375 -23.734375 C 12.707031 -23.734375 11.019531 -23 9.78125 -21.53125 C 8.550781 -20.070312 7.9375 -18.046875 7.9375 -15.453125 L 7.9375 0 L 3.5 0 L 3.5 -20.984375 C 3.5 -24.085938 3.453125 -25.984375 3.359375 -26.671875 L 7.546875 -26.671875 C 7.566406 -26.585938 7.582031 -26.363281 7.59375 -26 C 7.613281 -25.644531 7.632812 -25.234375 7.65625 -24.765625 C 7.6875 -24.296875 7.71875 -23.410156 7.75 -22.109375 L 7.8125 -22.109375 C 8.832031 -23.953125 10.015625 -25.253906 11.359375 -26.015625 C 12.703125 -26.785156 14.367188 -27.171875 16.359375 -27.171875 C 19.285156 -27.171875 21.425781 -26.441406 22.78125 -24.984375 C 24.132812 -23.523438 24.8125 -21.117188 24.8125 -17.765625 L 24.8125 0 Z M 20.34375 0 "/></g></g></g><g fill="#555555" fill-opacity="1"><g transform="translate(491.848956, 341.525361)"><g><path d="M 13.671875 -0.203125 C 12.203125 0.191406 10.703125 0.390625 9.171875 0.390625 C 5.617188 0.390625 3.84375 -1.617188 3.84375 -5.640625 L 3.84375 -23.4375 L 0.765625 -23.4375 L 0.765625 -26.671875 L 4.015625 -26.671875 L 5.328125 -32.640625 L 8.28125 -32.640625 L 8.28125 -26.671875 L 13.21875 -26.671875 L 13.21875 -23.4375 L 8.28125 -23.4375 L 8.28125 -6.609375 C 8.28125 -5.328125 8.488281 -4.425781 8.90625 -3.90625 C 9.332031 -3.382812 10.0625 -3.125 11.09375 -3.125 C 11.6875 -3.125 12.546875 -3.238281 13.671875 -3.46875 Z M 13.671875 -0.203125 "/></g></g></g><g fill="#555555" fill-opacity="1"><g transform="translate(505.879297, 341.525361)"><g><path d="M 6.8125 -12.40625 C 6.8125 -9.34375 7.441406 -6.976562 8.703125 -5.3125 C 9.972656 -3.65625 11.820312 -2.828125 14.25 -2.828125 C 16.175781 -2.828125 17.71875 -3.210938 18.875 -3.984375 C 20.039062 -4.765625 20.828125 -5.742188 21.234375 -6.921875 L 25.140625 -5.8125 C 23.535156 -1.601562 19.90625 0.5 14.25 0.5 C 10.3125 0.5 7.304688 -0.675781 5.234375 -3.03125 C 3.171875 -5.382812 2.140625 -8.878906 2.140625 -13.515625 C 2.140625 -17.910156 3.171875 -21.285156 5.234375 -23.640625 C 7.304688 -25.992188 10.253906 -27.171875 14.078125 -27.171875 C 21.921875 -27.171875 25.84375 -22.441406 25.84375 -12.984375 L 25.84375 -12.40625 Z M 21.265625 -15.796875 C 21.015625 -18.609375 20.296875 -20.660156 19.109375 -21.953125 C 17.929688 -23.242188 16.234375 -23.890625 14.015625 -23.890625 C 11.859375 -23.890625 10.148438 -23.171875 8.890625 -21.734375 C 7.628906 -20.296875 6.953125 -18.316406 6.859375 -15.796875 Z M 21.265625 -15.796875 "/></g></g></g><g fill="#555555" fill-opacity="1"><g transform="translate(533.964607, 341.525361)"><g><path d="M 3.5 0 L 3.5 -20.453125 C 3.5 -22.328125 3.453125 -24.398438 3.359375 -26.671875 L 7.546875 -26.671875 C 7.679688 -23.648438 7.75 -21.832031 7.75 -21.21875 L 7.84375 -21.21875 C 8.550781 -23.507812 9.363281 -25.070312 10.28125 -25.90625 C 11.207031 -26.75 12.507812 -27.171875 14.1875 -27.171875 C 14.78125 -27.171875 15.378906 -27.085938 15.984375 -26.921875 L 15.984375 -22.84375 C 15.390625 -23.007812 14.597656 -23.09375 13.609375 -23.09375 C 11.773438 -23.09375 10.367188 -22.300781 9.390625 -20.71875 C 8.421875 -19.132812 7.9375 -16.863281 7.9375 -13.90625 L 7.9375 0 Z M 3.5 0 "/></g></g></g><path fill="#c9a227" d="M 208.320312 291.042969 L 483.835938 291.042969 L 483.835938 297.925781 L 208.320312 297.925781 Z M 208.320312 291.042969 " fill-opacity="1" fill-rule="nonzero"/></svg>